<?xml version="1.0" encoding="UTF-8" standalone="no"?><svg xmlns="http://www.w3.org/2000/svg" xmlns:xlink="http://www.w3.org/1999/xlink" fill="#ff914d" height="300" preserveAspectRatio="xMidYMid meet" version="1" viewBox="0.0 0.0 300.0 300.0" width="300" zoomAndPan="magnify"><g><g id="change1_1"><path d="M71.144,208.366v10h17.091h21.322h29.782h21.322h29.782h21.322h17.091v-10h-12.091v-81.885h12.091v-10h-17.091h-21.322 h-29.782h-21.322h-29.782H88.236H71.144v10h12.091v81.885H71.144z M114.557,208.366v-81.885h19.782v81.885H114.557z M165.661,208.366v-81.885h19.782v81.885H165.661z M206.764,126.481v81.885h-11.322v-81.885H206.764z M155.661,126.481v81.885 h-11.322v-81.885H155.661z M93.236,126.481h11.322v81.885H93.236V126.481z" fill="inherit"/><path d="M237.485,228.333H62.515c-2.762,0-5,2.24-5,5c0,2.76,2.238,5,5,5h174.971c2.762,0,5-2.24,5-5 C242.485,230.573,240.247,228.333,237.485,228.333z" fill="inherit"/><path d="M242.417,100.838c-0.017-0.124-0.02-0.252-0.046-0.373c-0.036-0.168-0.1-0.329-0.153-0.492 c-0.047-0.144-0.081-0.294-0.14-0.432c-0.064-0.149-0.154-0.286-0.232-0.428c-0.076-0.138-0.141-0.283-0.229-0.412 c-0.087-0.128-0.198-0.241-0.298-0.361c-0.107-0.129-0.205-0.265-0.325-0.383c-0.092-0.09-0.202-0.165-0.301-0.249 c-0.154-0.13-0.305-0.263-0.474-0.374c-0.018-0.012-0.031-0.027-0.049-0.039l-87.485-55.674c-1.637-1.042-3.73-1.042-5.368,0 L59.831,97.295c-0.018,0.012-0.031,0.027-0.049,0.039c-0.169,0.111-0.32,0.244-0.474,0.374c-0.1,0.084-0.21,0.158-0.301,0.249 c-0.119,0.118-0.218,0.254-0.325,0.383c-0.1,0.12-0.211,0.233-0.298,0.361c-0.088,0.13-0.153,0.274-0.229,0.412 c-0.078,0.142-0.168,0.279-0.232,0.428c-0.059,0.138-0.093,0.288-0.14,0.432c-0.053,0.164-0.117,0.324-0.153,0.492 c-0.026,0.121-0.029,0.249-0.046,0.373c-0.028,0.205-0.059,0.409-0.062,0.617c0,0.02-0.006,0.038-0.006,0.059 c0,0.109,0.025,0.211,0.032,0.318c0.013,0.204,0.023,0.406,0.061,0.608c0.029,0.153,0.079,0.297,0.121,0.445 c0.047,0.165,0.087,0.33,0.152,0.491c0.069,0.173,0.161,0.331,0.248,0.494c0.059,0.109,0.098,0.224,0.166,0.33 c0.012,0.02,0.029,0.034,0.042,0.053c0.099,0.151,0.218,0.283,0.332,0.422c0.097,0.119,0.186,0.247,0.293,0.355 c0.086,0.087,0.187,0.156,0.279,0.236c0.153,0.133,0.301,0.273,0.467,0.386c0.073,0.049,0.156,0.083,0.232,0.129 c0.199,0.12,0.398,0.241,0.61,0.331c0.092,0.039,0.192,0.059,0.286,0.093c0.211,0.075,0.42,0.152,0.639,0.198 c0.095,0.02,0.195,0.021,0.292,0.036c0.231,0.035,0.461,0.068,0.695,0.07c0.018,0,0.034,0.005,0.052,0.005h174.971 c0.391,0,0.768-0.056,1.134-0.141c0.1-0.023,0.193-0.061,0.292-0.091c0.268-0.08,0.526-0.177,0.773-0.299 c0.113-0.055,0.22-0.115,0.329-0.179c0.236-0.14,0.456-0.298,0.665-0.473c0.085-0.071,0.175-0.133,0.256-0.211 c0.276-0.264,0.523-0.556,0.733-0.877c0.011-0.017,0.027-0.028,0.037-0.045c0.068-0.106,0.107-0.221,0.166-0.33 c0.087-0.162,0.179-0.321,0.248-0.494c0.065-0.161,0.105-0.326,0.152-0.491c0.043-0.148,0.092-0.292,0.121-0.445 c0.038-0.202,0.049-0.404,0.061-0.608c0.007-0.107,0.032-0.209,0.032-0.318c0-0.02-0.006-0.039-0.006-0.059 C242.477,101.247,242.446,101.044,242.417,100.838z M150,51.768l70.315,44.746H79.685L150,51.768z" fill="inherit"/><path d="M150,0C67.29,0,0,67.288,0,150s67.29,150,150,150s150-67.288,150-150S232.71,0,150,0z M150,290 c-77.196,0-140-62.803-140-140S72.804,10,150,10s140,62.803,140,140S227.196,290,150,290z" fill="inherit"/></g></g></svg>